D:\school\WTK\thesis\model\3dpredictsim\Results\batch_windlass\Pog_s1_tmt_aCst_d05_k1000_WL30_ig24_act_TTC_GRF.mot
nRows=27
nColumns=19

name D:\school\WTK\thesis\model\3dpredictsim\Results\batch_windlass\Pog_s1_tmt_aCst_d05_k1000_WL30_ig24_act_TTC_GRF.mot
datacolumns 19
datarows 27
range 0.5952732436 0.9048153303
endheader
time 	ground_force_vx	ground_force_vy	ground_force_vz	ground_force_px	ground_force_py	ground_force_pz	1_ground_force_vx	1_ground_force_vy	1_ground_force_vz	1_ground_force_px	1_ground_force_py	1_ground_force_pz	ground_torque_x	ground_torque_y	ground_torque_z	1_ground_torque_x	1_ground_torque_y	1_ground_torque_z
        0.5952732436	       42.1984177867	      233.6304742060	        5.6022857602	        0.3677490831	        0.0000000000	        0.0261503305	      -29.4541153814	       26.4907386505	       -5.8336197680	        0.9117193128	        0.0000000000	       -0.0741590190	        0.0000000000	        0.0000000000	        0.0000000000	        0.0000000000	        0.0000000000	        0.0000000000	
        0.6071787085	       33.0927326929	      189.1342562022	       10.7578480892	        0.3683804819	        0.0000000000	        0.0260425996	     -123.6995751907	      125.8904351237	      -27.6154155311	        0.9240096586	        0.0000000000	       -0.0739863992	        0.0000000000	        0.0000000000	        0.0000000000	        0.0000000000	        0.0000000000	        0.0000000000	
        0.6190841734	       21.8327423270	      127.1546558911	       14.1497292510	        0.3684002865	        0.0000000000	        0.0264800321	     -105.7778189091	      439.2355252408	        2.5547921538	        0.9322338807	        0.0000000000	       -0.0720113214	        0.0000000000	        0.0000000000	        0.0000000000	        0.0000000000	        0.0000000000	        0.0000000000	
        0.6309896383	        0.4294853078	       52.8531525131	       10.8641615663	        0.3670855996	        0.0000000000	        0.0270167735	     -164.4885294743	      886.6921778327	       27.6571236038	        0.9452935733	        0.0000000000	       -0.0690014652	        0.0000000000	        0.0000000000	        0.0000000000	        0.0000000000	        0.0000000000	        0.0000000000	
        0.6428951031	        0.4176578842	       -0.4215536348	       -0.0169087842	        0.0000000000	        0.0000000000	        0.0000000000	     -189.0839473206	     1085.2147517112	       32.2199444550	        0.9507236945	        0.0000000000	       -0.0672363555	        0.0000000000	        0.0000000000	        0.0000000000	        0.0000000000	        0.0000000000	        0.0000000000	
        0.6548005680	        0.0021789866	       -0.0018472536	        0.0000362304	        0.0000000000	        0.0000000000	        0.0000000000	     -176.6575831544	     1043.5831246712	       32.5698048259	        0.9538688196	        0.0000000000	       -0.0659900685	        0.0000000000	        0.0000000000	        0.0000000000	        0.0000000000	        0.0000000000	        0.0000000000	
        0.6667060329	        0.0004433940	       -0.0003305084	        0.0000124171	        0.0000000000	        0.0000000000	        0.0000000000	     -146.6933331499	      924.9302818384	       29.7475915013	        0.9567974198	        0.0000000000	       -0.0652384202	        0.0000000000	        0.0000000000	        0.0000000000	        0.0000000000	        0.0000000000	        0.0000000000	
        0.6786114978	        0.0007414835	       -0.0005024511	        0.0000261008	        0.0000000000	        0.0000000000	        0.0000000000	     -125.9598380398	      829.1889359590	       27.5122370157	        0.9600018855	        0.0000000000	       -0.0647223507	        0.0000000000	        0.0000000000	        0.0000000000	        0.0000000000	        0.0000000000	        0.0000000000	
        0.6905169626	        0.0052971389	       -0.0033437151	        0.0001809540	        0.0000000000	        0.0000000000	        0.0000000000	     -111.4767778171	      771.8578569995	       25.6678937978	        0.9627255987	        0.0000000000	       -0.0644351309	        0.0000000000	        0.0000000000	        0.0000000000	        0.0000000000	        0.0000000000	        0.0000000000	
        0.7024224275	       -0.0209564276	        0.0125996452	       -0.0006931211	        0.0000000000	        0.0000000000	        0.0000000000	      -97.7038868595	      736.9668095989	       26.1470873949	        0.9649390809	        0.0000000000	       -0.0642793125	        0.0000000000	        0.0000000000	        0.0000000000	        0.0000000000	        0.0000000000	        0.0000000000	
        0.7143278924	       -0.0360778270	        0.0205374615	       -0.0013048172	        0.0000000000	        0.0000000000	        0.0000000000	      -83.1545980155	      711.2015553265	       27.1441896373	        0.9669678346	        0.0000000000	       -0.0642135080	        0.0000000000	        0.0000000000	        0.0000000000	        0.0000000000	        0.0000000000	        0.0000000000	
        0.7262333572	       -0.0198196514	        0.0105980560	       -0.0009172621	        0.0000000000	        0.0000000000	        0.0000000000	      -68.3097425149	      688.5198613346	       27.9667100265	        0.9702771634	        0.0000000000	       -0.0639993543	        0.0000000000	        0.0000000000	        0.0000000000	        0.0000000000	        0.0000000000	        0.0000000000	
        0.7381388221	       -0.0117969800	        0.0059704458	       -0.0006334904	        0.0000000000	        0.0000000000	        0.0000000000	      -57.4173188970	      667.0360154577	       27.9578882074	        0.9749912626	        0.0000000000	       -0.0635370541	        0.0000000000	        0.0000000000	        0.0000000000	        0.0000000000	        0.0000000000	        0.0000000000	
        0.7500442870	       -0.0088588542	        0.0042792530	       -0.0005231340	        0.0000000000	        0.0000000000	        0.0000000000	      -49.1547207611	      647.9215127266	       27.7545855259	        0.9805731788	        0.0000000000	       -0.0628709379	        0.0000000000	        0.0000000000	        0.0000000000	        0.0000000000	        0.0000000000	        0.0000000000	
        0.7619497519	       -0.0085730354	        0.0039794474	       -0.0005363288	        0.0000000000	        0.0000000000	        0.0000000000	      -42.6316433710	      630.2729622639	       27.2365927993	        0.9865696074	        0.0000000000	       -0.0620620677	        0.0000000000	        0.0000000000	        0.0000000000	        0.0000000000	        0.0000000000	        0.0000000000	
        0.7738552167	       -0.0104947594	        0.0047057460	       -0.0006694980	        0.0000000000	        0.0000000000	        0.0000000000	      -37.2554679811	      614.8443485151	       26.2975732791	        0.9926177504	        0.0000000000	       -0.0611796417	        0.0000000000	        0.0000000000	        0.0000000000	        0.0000000000	        0.0000000000	        0.0000000000	
        0.7857606816	       -0.0157484194	        0.0068487631	       -0.0009906907	        0.0000000000	        0.0000000000	        0.0000000000	      -33.1161807562	      602.8917627600	       25.1028514896	        0.9984956181	        0.0000000000	       -0.0602679418	        0.0000000000	        0.0000000000	        0.0000000000	        0.0000000000	        0.0000000000	        0.0000000000	
        0.7976661465	       -0.0278864852	        0.0118035944	       -0.0016857914	        0.0000000000	        0.0000000000	        0.0000000000	      -29.7415920755	      593.5987717440	       23.9784566335	        1.0040414209	        0.0000000000	       -0.0593628443	        0.0000000000	        0.0000000000	        0.0000000000	        0.0000000000	        0.0000000000	        0.0000000000	
        0.8095716114	       -0.0549022890	        0.0226958965	       -0.0031437908	        0.0000000000	        0.0000000000	        0.0000000000	      -26.6859801228	      585.8669377979	       23.3217614072	        1.0092925583	        0.0000000000	       -0.0584673521	        0.0000000000	        0.0000000000	        0.0000000000	        0.0000000000	        0.0000000000	        0.0000000000	
        0.8214770762	       -0.1120888560	        0.0454028764	       -0.0060197327	        0.0000000000	        0.0000000000	        0.0000000000	      -23.7937624162	      579.1117665702	       22.9060652618	        1.0142744632	        0.0000000000	       -0.0575876611	        0.0000000000	        0.0000000000	        0.0000000000	        0.0000000000	        0.0000000000	        0.0000000000	
        0.8333825411	       -0.2217779956	        0.0883145378	       -0.0111119067	        0.0000000000	        0.0000000000	        0.0000000000	      -21.0338123660	      572.9886445361	       22.6378789934	        1.0189960998	        0.0000000000	       -0.0567284007	        0.0000000000	        0.0000000000	        0.0000000000	        0.0000000000	        0.0000000000	        0.0000000000	
        0.8452880060	       -0.4042632259	        0.1587874942	       -0.0188786491	        0.0000000000	        0.0000000000	        0.0000000000	      -18.4167543188	      567.2609597659	       22.5228691654	        1.0234585318	        0.0000000000	       -0.0558945788	        0.0000000000	        0.0000000000	        0.0000000000	        0.0000000000	        0.0000000000	        0.0000000000	
        0.8571934708	       -0.6603704920	        0.2566563060	       -0.0287325104	        0.0000000000	        0.0000000000	        0.0000000000	      -15.8852590024	      561.9464461669	       22.3246147496	        1.0276403306	        0.0000000000	       -0.0550990749	        0.0000000000	        0.0000000000	        0.0000000000	        0.0000000000	        0.0000000000	        0.0000000000	
        0.8690989357	       -0.9551041621	        0.3683694619	       -0.0384462807	        0.0000000000	        0.0000000000	        0.0000000000	      -13.4199538890	      557.1346155707	       21.9987553022	        1.0315054300	        0.0000000000	       -0.0543538760	        0.0000000000	        0.0000000000	        0.0000000000	        0.0000000000	        0.0000000000	        0.0000000000	
        0.8810044006	       -1.2276083419	        0.4710336570	       -0.0449823916	        0.0000000000	        0.0000000000	        0.0000000000	      -11.0946699505	      551.7581943844	       21.3859518029	        1.0349728728	        0.0000000000	       -0.0536796996	        0.0000000000	        0.0000000000	        0.0000000000	        0.0000000000	        0.0000000000	        0.0000000000	
        0.8929098655	       -1.4255330531	        0.5453009697	       -0.0460667509	        0.0000000000	        0.0000000000	        0.0000000000	       -8.6626724726	      545.3072264925	       20.4518237508	        1.0379954059	        0.0000000000	       -0.0530901883	        0.0000000000	        0.0000000000	        0.0000000000	        0.0000000000	        0.0000000000	        0.0000000000	
        0.9048153303	       -1.5406858336	        0.5884894996	       -0.0414088593	        0.0000000000	        0.0000000000	        0.0000000000	       -5.5264294512	      540.4363547383	       19.0670854529	        1.0406267297	        0.0000000000	       -0.0525722976	        0.0000000000	        0.0000000000	        0.0000000000	        0.0000000000	        0.0000000000	        0.0000000000	
